<svg width="32" height="32" viewBox="0 0 32 32" xmlns="http://www.w3.org/2000/svg">
  <defs>
    <linearGradient id="shieldGradient" x1="0%" y1="0%" x2="100%" y2="100%">
      <stop offset="0%" style="stop-color:#4a90e2;stop-opacity:1" />
      <stop offset="100%" style="stop-color:#357abd;stop-opacity:1" />
    </linearGradient>
    <linearGradient id="coreGradient" x1="0%" y1="0%" x2="100%" y2="100%">
      <stop offset="0%" style="stop-color:#e74c3c;stop-opacity:0.9" />
      <stop offset="100%" style="stop-color:#c0392b;stop-opacity:0.9" />
    </linearGradient>
    <filter id="shadow" x="-20%" y="-20%" width="140%" height="140%">
      <feDropShadow dx="1" dy="1" stdDeviation="1" flood-color="#000000" flood-opacity="0.3"/>
    </filter>
  </defs>
  
  <circle cx="16" cy="16" r="15" fill="url(#shieldGradient)" filter="url(#shadow)"/>
  
  <circle cx="16" cy="16" r="12" fill="none" stroke="#2ecc71" stroke-width="1" opacity="0.8"/>
  <circle cx="16" cy="16" r="8" fill="none" stroke="#e74c3c" stroke-width="1" opacity="0.9"/>
  
  <circle cx="16" cy="16" r="4" fill="url(#coreGradient)"/>
  
  <g transform="translate(16, 16)">
    <path d="M-6,-8 L6,-8 L8,0 L6,8 L-6,8 L-8,0 Z" fill="#ffffff" opacity="0.9"/>
    <path d="M-3,-5 L3,-5 L4,0 L3,5 L-3,5 L-4,0 Z" fill="#e74c3c"/>
    <circle cx="0" cy="-2" r="1" fill="#ffffff"/>
    <rect x="-0.5" y="1" width="1" height="2" fill="#ffffff"/>
  </g>
  
  <circle cx="16" cy="4" r="1.5" fill="#3498db"/>
  <circle cx="16" cy="28" r="1.5" fill="#3498db"/>
  <circle cx="4" cy="16" r="1.5" fill="#3498db"/>
  <circle cx="28" cy="16" r="1.5" fill="#3498db"/>
</svg>
